Coordinates
version=1
nRows=16
nColumns=36
inDegrees=yes

Units are S.I. units (second, meters, Newtons, ...)
If the header above contains a line with 'inDegrees', this indicates whether rotational values are in degrees (yes) or radians (no).

endheader
time	pelvis_tilt	pelvis_list	pelvis_rotation	pelvis_tx	pelvis_ty	pelvis_tz	hip_flexion_r	hip_adduction_r	hip_rotation_r	knee_angle_r	knee_angle_r_beta	ankle_angle_r	subtalar_angle_r	mtp_angle_r	hip_flexion_l	hip_adduction_l	hip_rotation_l	knee_angle_l	knee_angle_l_beta	ankle_angle_l	subtalar_angle_l	mtp_angle_l	lumbar_extension	lumbar_bending	lumbar_rotation	arm_flex_r	arm_add_r	arm_rot_r	elbow_flex_r	pro_sup_r	arm_flex_l	arm_add_l	arm_rot_l	elbow_flex_l	pro_sup_l
      1.03000000	     -2.79795201	     -0.20740957	      2.64044882	      1.18449755	      0.94664514	     -0.19506342	     26.49815444	      1.12324996	     -1.27780859	      1.94803374	      0.03399960	     -0.34989343	      1.27943979	     -7.34802701	     -8.53817101	      3.42135698	     -5.02093080	      4.78850209	      0.08357513	     17.47876926	      4.30000389	     -7.34802701	     -3.20189090	     -3.60878283	     -9.02131147	     -1.41868828	     -2.15957058	    -12.68246123	     26.50062336	    103.39214752	     26.83660139	    -11.50720348	      3.38386202	     44.29171993	    104.34697695
      1.04000000	     -3.17185212	      0.03849456	      2.61790360	      1.19455056	      0.94420525	     -0.19433015	     27.06030694	      0.90508850	     -2.54866533	      0.88660335	      0.01547415	      1.22956367	      3.95735882	     -7.35352331	     -8.69391476	      3.60772225	     -5.09779811	      5.07525843	      0.08857997	     17.83914017	      4.35079392	     -7.35352331	     -2.85246005	     -3.90265793	     -9.16371870	     -1.68848732	     -2.09201891	    -13.18906104	     26.45872958	    103.34531591	     27.14800056	    -11.62208479	      3.10634111	     45.48606583	    104.49548438
      1.05000000	     -3.54944686	      0.25245165	      2.61502066	      1.20464683	      0.94181999	     -0.19354321	     27.73149164	      0.73699147	     -3.72132720	      0.54953670	      0.00959122	      2.67125766	      5.90374377	     -7.35804889	     -8.79760341	      3.75583715	     -5.09005768	      5.45214688	      0.09515791	     18.11446907	      4.24715578	     -7.35804889	     -2.46525212	     -4.15465433	     -9.27607900	     -1.94532139	     -2.06669261	    -13.47387705	     26.32369654	    103.32276760	     27.48112076	    -11.65797117	      2.85768132	     46.35227626	    104.58151761
      1.06000000	     -3.76190916	      0.38969637	      2.61911699	      1.21486743	      0.93979068	     -0.19261688	     28.08851213	      0.69873761	     -4.18573155	      0.42492289	      0.00741630	      3.05680159	      5.90400542	     -7.35857026	     -9.12729672	      3.79663358	     -5.07290402	      5.71795592	      0.09979716	     18.14339202	      4.21135896	     -7.35857026	     -2.32082963	     -4.33590768	     -9.21410340	     -2.20992433	     -2.07247260	    -13.52813442	     26.12318504	    103.30745446	     28.02007252	    -11.55910466	      2.80614490	     46.89650279	    104.62579567
      1.07000000	     -3.92927191	      0.42081018	      2.77772671	      1.22552086	      0.93798761	     -0.19193002	     28.17919033	      0.69417756	     -4.48567562	      0.40451998	      0.00706021	      3.47156434	      5.88560156	     -7.35911452	     -9.43296303	      3.68291702	     -4.98474620	      6.17522620	      0.10777803	     18.17894725	      4.15415002	     -7.35911452	     -2.11422341	     -4.36917723	     -9.31505167	     -2.49502634	     -2.14606695	    -13.62875412	     25.91957719	    103.27206731	     28.30138249	    -11.40891679	      2.77109251	     47.43844655	    104.65614072
      1.08000000	     -4.09246932	      0.28359540	      3.09657313	      1.23636461	      0.93638965	     -0.19141077	     28.12671602	      0.78200269	     -4.90606637	      0.52199931	      0.00911061	      3.89676769	      5.56445869	     -7.36362612	     -9.54526523	      3.32593936	     -4.89142100	      7.04464072	      0.12295218	     18.65729459	      4.20985012	     -7.36362612	     -2.03543033	     -4.13550717	    -10.00963079	     -2.43837094	     -2.11075387	    -14.10199178	     25.59894950	    103.16415270	     27.87939372	    -11.44364040	      1.76321820	     49.07129292	    104.65552562
      1.09000000	     -4.07366158	      0.09132599	      3.39585531	      1.24751731	      0.93523880	     -0.19079524	     27.75547453	      0.95269382	     -4.96368198	      0.71954461	      0.01255842	      3.77144773	      4.82487377	     -7.36469475	     -9.90378249	      2.88887058	     -4.78413042	      7.81003360	      0.13631080	     18.51313965	      4.20505848	     -7.36469475	     -2.09652839	     -3.87846858	    -10.17683794	     -2.65965337	     -2.21629609	    -14.18214015	     25.34496336	    103.11439100	     28.04256697	    -11.16307120	      1.61318585	     49.59050486	    104.65408679
      1.10000000	     -4.12267076	     -0.10362268	      3.58955939	      1.25881536	      0.93411270	     -0.18988176	     27.37169721	      1.24991742	     -3.57935421	      0.92220897	      0.01609558	      1.77193563	      0.56315395	     -7.37121039	    -10.10576167	      2.42364119	     -5.11338543	      8.73057976	      0.15237736	     18.75948112	      4.60764965	     -7.37121039	     -2.05184563	     -3.59692575	    -10.71782041	     -2.58643945	     -2.23356552	    -14.30021414	     24.91837126	    103.03021731	     27.43574414	    -10.97766495	      0.30457676	     50.94157913	    104.58404507
      1.11000000	     -4.07827017	     -0.40414099	      3.83461683	      1.27034854	      0.93336541	     -0.18902602	     26.89990329	      1.59943625	     -2.85864076	      1.25816356	      0.02195910	      0.02674072	     -2.30817553	     -7.37763965	    -10.37440629	      1.83026556	     -5.23321227	      9.69906503	      0.16928062	     18.65555964	      4.66832953	     -7.37763965	     -2.09843379	     -3.18722544	    -11.01214909	     -2.65128152	     -2.33573694	    -14.28731342	     24.52494021	    102.93781561	     27.09693208	    -10.69266841	     -0.24682355	     51.69062965	    104.53269898
      1.12000000	     -3.92665790	     -0.79389082	      4.12444321	      1.28214656	      0.93301999	     -0.18819507	     26.36577354	      1.99168633	     -3.02105262	      1.72820450	      0.03016286	     -1.30081225	     -3.63541422	     -7.37969276	    -10.69858105	      1.11772409	     -5.30173573	     10.75516138	      0.18771298	     18.30254131	      4.42578563	     -7.37969276	     -2.24712100	     -2.66646340	    -11.22104881	     -2.76461436	     -2.44266796	    -14.40656312	     24.18534594	    102.87040371	     26.82022559	    -10.34542490	     -0.51409489	     52.16070798	    104.51891333
      1.13000000	     -3.79317438	     -1.22703869	      4.39861706	      1.29407644	      0.93287369	     -0.18725535	     25.80375415	      2.45377985	     -2.96827970	      2.07870353	      0.03628022	     -3.14805011	     -5.47037028	     -7.38186946	    -10.92582919	      0.35171434	     -5.34590458	     11.92446812	      0.20812123	     17.80673267	      4.08732991	     -7.38186946	     -2.36333916	     -2.09362324	    -11.45332760	     -2.82340691	     -2.53463086	    -14.56792703	     23.79614540	    102.78421213	     26.32627855	     -9.93631075	     -1.04696464	     52.75148761	    104.47834556
      1.14000000	     -3.75867097	     -1.64065221	      4.58002326	      1.30611432	      0.93280648	     -0.18607117	     25.23708243	      2.97956534	     -1.96537447	      2.20153914	      0.03842411	     -5.94778908	     -8.73168439	     -7.38685777	    -11.07582925	     -0.33650948	     -5.02273220	     13.01020274	      0.22707087	     17.16286542	      3.57086831	     -7.38685777	     -2.33816946	     -1.54442892	    -11.76677778	     -2.76511318	     -2.60864993	    -14.64658146	     23.33981112	    102.63680946	     25.49064936	     -9.51074197	     -2.06489563	     53.60489798	    104.35800395
      1.15000000	     -3.53915440	     -2.12932375	      4.84208677	      1.31840915	      0.93321521	     -0.18499420	     24.57497654	      3.51720697	     -2.31523124	      2.56796115	      0.04481938	     -7.07781865	     -9.44655389	     -7.38868067	    -11.21693247	     -1.18359470	     -5.01482699	     14.45716181	      0.25232507	     16.34334940	      2.99686454	     -7.38868067	     -2.48248597	     -0.90078505	    -11.83668413	     -2.89255767	     -2.73259883	    -14.67992396	     22.97859003	    102.56744328	     24.98532347	     -9.06233911	     -2.18236080	     53.74156845	    104.32276282
      1.16000000	     -3.40919916	     -2.58685368	      5.06849126	      1.33075604	      0.93374282	     -0.18375083	     23.96283828	      4.07567668	     -2.26331413	      2.82621542	      0.04932676	     -8.94143251	    -11.09732980	     -7.39331152	    -11.20651729	     -1.92486134	     -4.41925503	     15.97110518	      0.27874837	     15.16141226	      1.81266571	     -7.39331152	     -2.52441698	     -0.32498791	    -12.03459810	     -2.85396113	     -2.83577845	    -14.62815555	     22.46544830	    102.41809358	     24.15051977	     -8.59018039	     -2.82140762	     54.17045889	    104.21342739
      1.17000000	     -3.12199466	     -3.03322699	      5.23712073	      1.34315711	      0.93460439	     -0.18237902	     23.25636977	      4.65175388	     -2.30962824	      3.36941541	      0.05880739	     -9.22543156	    -11.26486780	     -7.39385654	    -11.24486329	     -2.70626375	     -4.06588149	     17.68964065	      0.30874247	     14.20318474	      1.57670281	     -7.39385654	     -2.79185156	      0.27358643	    -11.84899577	     -2.97373233	     -2.95157265	    -14.64929362	     22.18694230	    102.38449796	     23.61178520	     -8.06798003	     -2.74028335	     54.16569134	    104.20960560
      1.18000000	     -3.01888162	     -3.51347490	      5.55426435	      1.35565464	      0.93541043	     -0.18108572	     22.70550164	      5.21849657	     -2.84762205	      3.76200954	      0.06565945	    -10.34003736	    -12.38838033	     -7.39882942	    -10.74440134	     -3.53681735	     -3.58318622	     19.90917925	      0.34748073	     12.29062411	     -0.44081109	     -7.39882942	     -2.69177660	      0.83006230	    -12.05485478	     -2.93927279	     -3.02783274	    -14.37459672	     21.54162918	    102.24021764	     22.71274381	     -7.60503079	     -3.10615590	     54.18294210	    104.11088971
